<?xml version="1.0" standalone="no"?>
<!DOCTYPE svg PUBLIC "-//W3C//DTD SVG 20010904//EN"
 "http://www.w3.org/TR/2001/REC-SVG-20010904/DTD/svg10.dtd">
<svg version="1.0" xmlns="http://www.w3.org/2000/svg"
 width="512.000000pt" height="512.000000pt" viewBox="0 0 512.000000 512.000000"
 preserveAspectRatio="xMidYMid meet">

<g transform="translate(0.000000,512.000000) scale(0.100000,-0.100000)"
fill="#000000" stroke="none">
<path d="M2015 4764 c-16 -2 -79 -9 -140 -15 -326 -33 -655 -139 -870 -280
-44 -28 -101 -61 -127 -72 -26 -11 -45 -23 -42 -28 3 -5 -2 -6 -10 -3 -8 3
-23 1 -33 -6 -16 -9 -15 -10 7 -5 21 5 19 2 -10 -16 -167 -107 -216 -144 -295
-223 -198 -200 -327 -449 -387 -748 -30 -150 -31 -424 -4 -568 66 -340 235
-624 486 -814 41 -31 111 -88 155 -126 266 -233 644 -391 1085 -451 142 -20
573 -17 730 4 173 24 305 51 440 92 63 19 116 33 118 31 4 -5 -142 -101 -245
-161 -73 -42 -100 -65 -75 -65 22 0 217 108 329 182 70 47 134 89 142 93 8 4
46 9 85 10 l72 2 43 -59 c23 -32 62 -97 86 -145 88 -178 112 -298 80 -404 -18
-57 -27 -68 -148 -183 -128 -121 -184 -183 -174 -193 7 -6 49 22 140 94 37 30
67 50 67 46 0 -5 -27 -50 -60 -101 -33 -51 -60 -96 -60 -100 0 -4 -41 -48 -92
-99 -51 -51 -89 -95 -86 -99 8 -8 86 45 158 107 30 26 84 83 120 127 35 45 66
79 68 77 6 -6 -20 -49 -65 -103 -41 -52 -47 -72 -19 -72 21 0 146 137 200 218
161 243 258 527 272 797 8 152 0 139 109 164 179 42 367 154 529 317 261 261
401 530 436 834 14 118 4 436 -17 539 -68 342 -345 690 -748 941 -38 24 -89
58 -112 75 -24 18 -66 42 -95 53 -29 11 -123 47 -208 80 -85 33 -186 70 -225
81 -236 69 -525 121 -775 141 -74 6 -182 15 -240 21 -110 11 -543 20 -595 13z
m644 -79 c167 -21 248 -37 151 -30 -520 37 -857 26 -1216 -40 -157 -29 -171
-30 -84 -4 88 26 284 67 405 84 133 19 559 13 744 -10z m542 -26 c176 -31 559
-132 547 -144 -5 -6 -272 51 -330 71 -29 9 -120 34 -203 55 -172 43 -175 47
-14 18z m-1041 -22 c0 -10 -202 -188 -207 -183 -4 3 -1 12 5 18 17 17 15 58
-4 65 -11 4 -38 -19 -92 -78 -202 -222 -605 -613 -626 -606 -31 10 -10 45 102
170 176 194 405 415 500 481 45 32 82 62 82 67 0 6 -4 19 -10 29 -9 17 -4 19
53 24 141 14 197 17 197 13z m455 -7 c180 -13 473 -45 644 -71 99 -15 174 -34
288 -74 85 -30 158 -56 161 -60 3 -3 -4 -12 -15 -20 -12 -8 -51 -40 -87 -71
-64 -55 -73 -57 -107 -32 -36 26 -69 -23 -34 -52 20 -17 19 -27 -6 -40 -15 -8
-24 -8 -34 0 -21 17 -37 3 -23 -20 10 -15 9 -23 -7 -40 l-19 -20 -31 30 c-17
16 -38 30 -46 30 -8 0 -20 5 -26 11 -9 9 7 29 63 82 86 80 101 102 83 123 -21
25 -41 15 -126 -67 -67 -64 -89 -80 -106 -75 -12 3 -30 6 -39 6 -11 0 -18 8
-18 19 0 25 -23 43 -46 35 -13 -5 -8 4 14 28 61 65 19 119 -52 67 l-31 -23 18
27 c10 16 17 38 15 50 -7 48 -37 30 -159 -97 -73 -76 -129 -126 -140 -126 -11
0 -23 -8 -27 -19 -9 -23 -193 -181 -204 -175 -4 3 -8 11 -8 19 0 19 136 148
258 245 56 44 102 84 102 89 0 4 -14 20 -31 34 l-32 26 -57 -29 c-79 -40 -185
-127 -320 -265 -63 -64 -141 -139 -173 -167 l-58 -51 -35 34 c-18 18 -34 38
-34 44 0 27 328 328 490 450 36 26 69 52 73 56 14 12 -3 49 -22 49 -38 0 -431
-318 -550 -445 -42 -45 -68 -65 -84 -65 -29 0 -47 -19 -56 -59 -4 -17 -48 -73
-111 -140 l-105 -113 -22 29 c-13 15 -23 33 -23 38 0 22 503 516 688 676 38
33 51 50 46 62 -3 9 -14 17 -23 17 -18 0 -210 -164 -445 -379 -175 -161 -203
-183 -161 -127 17 22 122 127 235 234 163 155 205 201 205 221 0 51 -31 34
-170 -91 -237 -213 -245 -217 -52 -22 103 104 187 195 187 202 0 15 184 16
385 2z m-780 -28 c-6 -5 -41 -30 -79 -57 -62 -43 -117 -93 -355 -319 -125
-120 -42 -16 107 132 133 133 152 163 106 170 -39 6 -273 -221 -444 -430 -30
-37 -60 -68 -65 -68 -6 0 -16 10 -24 22 -14 22 -6 30 183 214 144 140 195 196
190 208 -3 9 -14 16 -25 16 -25 0 -175 -126 -334 -281 -71 -69 -151 -140 -176
-157 -25 -17 -86 -68 -135 -114 -49 -46 -127 -112 -174 -148 -148 -112 -272
-254 -256 -295 8 -22 27 -19 79 15 26 17 50 30 52 30 3 0 -18 -35 -45 -77 -55
-84 -55 -112 1 -72 37 26 32 14 -22 -51 -45 -55 -91 -139 -113 -205 -18 -53
-42 -92 -52 -83 -3 3 0 52 6 109 48 442 250 838 565 1111 107 92 157 120 335
186 156 58 287 92 485 126 149 26 205 31 190 18z m2090 -173 c105 -20 331
-145 503 -279 146 -113 341 -323 402 -432 28 -52 21 -47 -23 15 -153 215 -461
455 -791 617 -90 44 -169 80 -175 80 -6 0 -11 5 -11 11 0 6 8 8 18 5 9 -2 44
-10 77 -17z m52 -123 c93 -46 200 -102 238 -126 91 -55 273 -193 354 -267 l65
-59 -49 -29 -49 -28 -31 38 c-22 28 -242 291 -271 324 -2 2 -15 1 -29 -3 -33
-8 -32 -36 1 -76 46 -54 20 -43 -62 26 -44 36 -94 73 -113 81 -32 14 -35 13
-72 -16 -44 -36 -45 -36 -66 -16 -20 20 -35 15 -51 -18 l-12 -26 -43 39 c-23
22 -53 45 -66 52 -20 11 -25 10 -37 -7 -8 -10 -14 -22 -14 -26 0 -4 23 -31 50
-60 54 -58 60 -69 32 -69 -16 0 -140 141 -150 169 -2 5 33 39 77 77 67 58 80
73 78 95 -3 25 -2 26 25 17 15 -6 103 -47 195 -92z m-872 -66 c3 -11 15 -20
26 -20 10 0 19 -4 19 -8 0 -4 -31 -35 -68 -69 -63 -56 -69 -60 -87 -46 -11 8
-29 21 -40 29 -19 13 -18 16 24 58 39 39 92 75 113 76 4 0 10 -9 13 -20z
m-2485 -97 c-129 -144 -265 -385 -335 -596 -124 -371 -124 -711 0 -1043 44
-116 43 -152 -2 -67 -51 95 -100 230 -124 344 -19 87 -23 136 -23 299 -1 169
2 209 22 299 61 273 179 502 352 685 64 68 143 136 157 136 3 0 -19 -26 -47
-57z m2944 -9 c16 -22 16 -28 4 -40 -12 -12 -17 -11 -38 11 -19 20 -21 27 -10
40 17 20 22 19 44 -11z m541 -105 c50 -45 91 -85 93 -89 2 -5 -6 -18 -18 -30
l-21 -21 -97 96 c-92 91 -96 96 -78 110 11 8 22 15 25 15 4 0 47 -36 96 -81z
m-613 54 c23 -21 23 -36 -1 -57 -17 -16 -19 -15 -35 8 -19 30 -20 38 -4 54 15
15 18 15 40 -5z m-216 -15 c5 -17 -3 -30 -42 -65 -27 -24 -60 -51 -73 -60 -23
-16 -24 -16 -42 6 -33 40 -34 38 80 108 65 39 68 39 77 11z m-391 -64 l20 -37
-74 -68 c-40 -38 -79 -69 -86 -69 -7 0 -22 12 -34 28 l-20 27 77 78 c42 42 81
77 87 77 6 0 19 -16 30 -36z m784 -13 c20 -28 19 -41 -3 -41 -16 1 -48 48 -41
60 10 17 23 11 44 -19z m-2046 -5 c-10 -13 -20 -22 -22 -20 -4 4 29 44 36 44
2 0 -4 -11 -14 -24z m-590 -9 c14 -22 11 -26 -94 -135 l-109 -113 0 35 c0 29
14 51 86 135 48 56 90 101 94 101 4 0 14 -10 23 -23z m2321 -35 c14 -27 14
-28 -50 -82 -67 -57 -109 -81 -61 -36 30 29 31 34 17 56 -7 11 0 24 27 52 21
21 41 38 45 38 4 0 14 -12 22 -28z m249 -7 c30 -42 -3 -64 -38 -25 -18 20 -14
50 7 50 7 0 21 -12 31 -25z m-1511 -12 c15 -15 28 -32 28 -38 0 -5 -58 -68
-129 -139 l-128 -128 -23 32 c-16 23 -20 37 -14 50 12 25 216 248 228 249 6 1
23 -11 38 -26z m2045 -125 c51 -51 93 -97 93 -101 0 -5 -45 32 -100 83 -91 84
-113 110 -93 110 4 0 49 -42 100 -92z m-1155 47 l25 -36 -74 -72 -74 -72 -20
25 c-43 55 -44 54 32 124 39 36 75 66 79 66 4 0 18 -16 32 -35z m818 -10 c10
-12 10 -18 0 -30 -7 -8 -16 -15 -20 -15 -10 0 -60 77 -54 83 7 7 59 -20 74
-38z m-2315 3 c-68 -75 -140 -148 -147 -148 -22 0 -1 28 75 100 82 79 126 108
72 48z m1959 -30 c14 -20 14 -24 -1 -40 -10 -11 -24 -16 -38 -12 -17 4 -34 -4
-63 -31 -28 -25 -43 -32 -48 -24 -5 8 16 34 57 70 35 32 67 58 71 59 4 0 14
-10 22 -22z m-804 -33 c12 -23 11 -28 -10 -50 -30 -32 -36 -31 -54 3 -14 27
-13 30 7 50 28 28 41 28 57 -3z m2136 -97 c120 -179 204 -437 204 -627 0 -59
-28 -141 -81 -240 -62 -116 -71 -118 -44 -10 26 101 30 129 17 114 -5 -6 -21
-55 -36 -110 -15 -55 -30 -107 -32 -117 -4 -14 -8 -13 -29 8 -30 29 -42 30
-71 3 -22 -21 -23 -21 -48 -3 -14 11 -25 24 -25 29 -1 6 62 78 139 160 77 83
140 157 140 166 0 19 -19 39 -39 39 -9 0 -55 -39 -103 -87 -49 -48 -88 -82
-88 -74 0 7 31 42 69 78 39 35 73 73 76 84 8 23 -9 47 -42 60 -15 5 -23 17
-23 31 0 13 -9 42 -19 65 -17 36 -18 43 -5 54 12 10 19 8 37 -10 45 -42 64
-20 68 81 3 61 1 68 -25 95 -34 35 -106 134 -106 147 0 5 9 19 20 31 19 20 19
55 1 55 -20 0 -40 29 -46 65 l-6 40 26 -30 c14 -16 46 -60 71 -97z m-3619 97
c5 -15 -233 -249 -241 -236 -9 15 203 253 222 249 8 -2 17 -8 19 -13z m517
-40 c9 -13 16 -29 16 -36 0 -6 -30 -44 -67 -85 l-66 -75 -22 21 c-12 11 -26
20 -32 20 -18 0 -22 -27 -8 -47 34 -44 -2 -86 -37 -44 -10 13 -18 31 -18 40 0
17 194 231 210 231 4 0 15 -11 24 -25z m2228 -2 c24 -21 23 -31 -4 -54 -30
-24 -33 -24 -53 7 -16 24 -16 27 1 45 21 23 32 24 56 2z m-812 -47 c0 -8 -33
-44 -74 -80 -71 -63 -75 -66 -86 -46 -14 27 -11 31 73 94 69 53 87 59 87 32z
m-849 -48 c-21 -28 -40 -43 -54 -43 -18 0 -22 -6 -22 -30 0 -16 -8 -41 -17
-54 l-16 -23 -17 32 -17 33 77 75 c54 53 79 72 87 64 8 -8 1 -23 -21 -54z
m275 27 c16 -25 16 -27 -6 -50 -24 -26 -34 -25 -50 4 -7 14 -4 25 11 45 11 14
22 26 24 26 3 0 12 -11 21 -25z m1027 3 c14 -21 -1 -39 -74 -88 -42 -29 -59
-36 -68 -27 -18 18 -14 25 47 82 58 56 77 62 95 33z m-783 -72 c0 -7 -14 -23
-31 -35 -33 -25 -33 -24 -60 23 -9 14 -5 24 18 48 l28 29 22 -26 c13 -14 23
-32 23 -39z m1566 -3 c-7 -17 -9 -16 -26 5 -11 13 -16 30 -13 38 5 13 9 13 26
-4 13 -14 17 -27 13 -39z m-276 -5 l45 -40 -45 -39 c-25 -21 -49 -39 -55 -39
-10 1 -65 84 -65 100 0 9 58 60 68 60 4 -1 27 -19 52 -42z m-2795 22 c8 -12
-8 -32 -112 -145 -81 -87 -83 -88 -103 -70 -19 18 -18 19 88 121 59 57 110
103 114 104 4 0 10 -5 13 -10z m515 -35 l22 -36 -53 -57 c-29 -31 -58 -63 -65
-71 -11 -12 -16 -11 -33 10 -11 13 -20 28 -21 33 0 7 120 156 126 156 1 0 12
-16 24 -35z m1383 -13 c-12 -9 -49 -39 -82 -65 -84 -66 -77 -43 11 37 50 46
75 63 83 55 7 -7 3 -15 -12 -27z m506 -41 c12 -16 21 -31 21 -34 0 -2 -22 -2
-50 1 -49 4 -56 0 -51 -31 1 -4 -11 -18 -26 -32 -28 -23 -54 -19 -52 9 0 11
118 114 131 115 4 1 16 -12 27 -28z m984 -43 c-31 -33 -48 -35 -62 -9 -11 20
-3 32 32 44 9 4 17 14 17 24 1 15 4 14 21 -6 l20 -24 -28 -29z m-2254 43 c8
-14 5 -23 -13 -40 -27 -25 -39 -26 -56 -6 -11 13 -9 20 10 40 28 30 46 32 59
6z m241 -26 c0 -7 -9 -20 -21 -31 -20 -18 -21 -18 -35 1 -18 24 -18 34 3 57
15 17 17 17 35 2 10 -10 18 -22 18 -29z m1770 16 c0 -15 -42 -33 -53 -22 -16
16 22 55 40 40 7 -6 13 -14 13 -18z m-2320 -41 l21 -41 -21 -29 c-12 -17 -25
-30 -30 -30 -5 0 -22 18 -39 39 l-31 39 37 31 c21 17 39 30 40 31 2 0 12 -18
23 -40z m769 9 c12 -20 10 -25 -18 -53 l-32 -31 -19 25 c-19 25 -19 25 7 53
32 33 44 34 62 6z m1330 2 c12 -7 4 -22 -38 -70 -56 -65 -62 -68 -80 -48 -8
10 -4 20 19 42 17 16 30 33 30 39 0 14 31 46 44 46 6 0 17 -4 25 -9z m-2805
-72 c10 -16 15 -36 12 -44 -3 -8 -38 -53 -78 -100 l-73 -86 -26 33 c-27 32
-27 33 -9 56 41 51 145 171 150 171 3 1 14 -13 24 -30z m907 5 c12 -14 9 -20
-21 -45 -30 -26 -36 -27 -49 -14 -13 13 -12 18 14 45 33 35 38 36 56 14z
m-661 -65 c0 -3 -9 -14 -20 -24 -16 -14 -22 -15 -34 -5 -26 20 -29 50 -10 72
19 20 19 20 41 -9 13 -15 23 -31 23 -34z m2595 1 c-27 -27 -51 -47 -54 -45 -3
3 17 28 44 55 27 27 51 47 54 45 3 -3 -17 -28 -44 -55z m-1725 30 c9 -17 7
-27 -11 -51 l-22 -31 -18 23 c-23 30 -23 38 -2 61 21 24 40 23 53 -2z m1268 2
c2 -7 -3 -12 -12 -12 -8 0 -36 -22 -61 -49 -29 -31 -52 -48 -61 -44 -21 8 -16
14 51 72 59 50 75 56 83 33z m749 -1 c10 -16 9 -22 -3 -32 -12 -10 -18 -9 -31
4 -17 17 -11 47 9 47 7 0 19 -9 25 -19z m-1782 -11 c16 -18 17 -23 5 -45 -17
-32 -35 -32 -56 0 -16 24 -16 27 1 45 23 25 28 25 50 0z m-816 -77 l29 -47
-28 -36 c-15 -19 -37 -43 -48 -53 -19 -17 -20 -17 -51 25 -17 23 -31 46 -31
51 0 12 81 107 92 107 4 0 21 -21 37 -47z m1893 22 c11 -24 8 -30 -42 -80 -47
-48 -56 -53 -69 -41 -12 13 -10 20 23 56 20 23 42 52 48 66 14 31 25 30 40 -1z
m-1632 -34 c-17 -33 -36 -43 -50 -26 -11 13 -9 20 10 40 18 19 26 22 36 14 9
-8 11 -17 4 -28z m1200 12 c-1 -10 -23 -35 -49 -55 -94 -73 -111 -59 -27 21
58 54 76 62 76 34z m-988 -33 c16 -28 16 -30 -3 -55 -26 -32 -43 -32 -68 3
l-20 29 27 26 c34 34 43 34 64 -3z m1608 5 c19 -20 21 -27 10 -40 -15 -19 -15
-19 -35 28 -18 43 -8 48 25 12z m394 -7 c7 -12 -3 -27 -50 -71 -43 -40 -62
-52 -71 -45 -21 17 -15 30 39 85 54 54 64 58 82 31z m-3483 -12 c9 -20 7 -29
-12 -55 -28 -37 -32 -38 -53 -6 -20 31 -21 29 9 60 32 31 42 31 56 1z m581 -6
l17 -30 -71 -81 c-67 -76 -71 -79 -89 -63 -11 9 -19 23 -19 31 0 17 121 172
135 172 6 1 18 -13 27 -29z m1127 -40 c0 -8 -10 -33 -24 -54 l-24 -39 -20 34
c-27 44 -26 51 6 89 l26 32 18 -24 c10 -12 19 -30 18 -38z m-345 -37 l26 -37
-22 -23 -22 -23 -23 27 c-12 16 -22 33 -23 38 0 11 28 55 35 55 2 0 16 -17 29
-37z m1645 -9 c17 -25 31 -49 29 -53 -2 -4 -23 -25 -47 -46 l-44 -40 -39 44
-39 44 48 49 c26 26 50 48 53 48 3 0 21 -21 39 -46z m772 -77 c-6 -6 -12 -9
-13 -6 -24 38 -56 114 -52 121 4 5 22 -16 41 -48 24 -39 31 -60 24 -67z
m-2900 35 c11 -19 9 -26 -11 -47 l-24 -25 -27 42 c-28 42 -28 49 0 81 14 17
16 17 33 -5 9 -13 23 -33 29 -46z m-1001 7 c21 -29 21 -31 5 -50 -24 -25 -37
-24 -64 5 l-23 25 25 25 c15 14 28 26 31 26 2 0 14 -14 26 -31z m357 9 c26
-24 30 -48 9 -48 -13 0 -56 49 -56 64 0 13 25 5 47 -16z m841 -55 c-46 -47
-56 -51 -65 -27 -4 10 10 31 38 60 40 41 45 43 56 27 11 -15 7 -23 -29 -60z
m512 -3 c10 -24 10 -33 -1 -46 -12 -15 -17 -12 -46 22 l-32 38 27 12 c33 14
36 12 52 -26z m1044 -7 l19 -26 -48 -45 -48 -46 -23 30 c-13 16 -24 32 -24 36
0 6 91 77 100 77 3 0 14 -11 24 -26z m1000 -40 l27 -56 -58 -61 c-80 -83 -77
-82 -88 -28 -5 26 -16 58 -24 72 -13 23 -11 26 43 77 31 29 61 53 65 53 5 0
21 -25 35 -57z m-1594 2 c-25 -27 -40 -32 -40 -13 0 21 43 59 54 48 6 -6 2
-18 -14 -35z m1130 36 c0 -12 -20 -25 -27 -18 -7 7 6 27 18 27 5 0 9 -4 9 -9z
m-1385 -18 c-5 -10 -13 -33 -19 -50 -13 -39 -17 -40 -34 -12 -12 19 -10 24 14
50 31 32 50 38 39 12z m1482 1 c2 -6 -33 -51 -77 -100 -44 -49 -80 -92 -80
-96 0 -5 -6 -8 -12 -7 -13 0 -78 82 -78 98 0 10 96 91 108 91 5 0 12 -9 15
-20 7 -28 18 -25 57 15 33 34 59 42 67 19z m-3496 -6 c41 -35 44 -47 14 -78
-33 -35 -45 -38 -45 -11 0 11 -10 27 -22 35 l-22 16 24 25 c27 29 31 30 51 13z
m387 -20 c16 -27 15 -28 -13 -58 -16 -16 -32 -30 -35 -30 -4 0 -15 16 -26 35
-18 34 -18 34 6 60 29 31 46 29 68 -7z m1327 -14 c21 -28 26 -41 18 -53 -17
-28 -39 -23 -67 14 -27 35 -27 37 -10 56 23 26 27 25 59 -17z m-743 -14 l28
-40 -46 -52 c-79 -91 -70 -87 -104 -48 -16 19 -29 39 -30 43 0 11 110 137 119
137 3 -1 18 -19 33 -40z m467 -1 l23 -31 -43 -44 -43 -44 -23 27 c-12 16 -22
32 -23 38 0 10 70 85 80 85 3 0 17 -14 29 -31z m-846 -7 c15 -16 15 -21 3 -38
-15 -19 -15 -19 -30 1 -17 22 -20 38 -9 48 10 11 19 8 36 -11z m592 -31 c-21
-22 -27 -24 -35 -11 -13 22 28 64 47 48 12 -9 10 -16 -12 -37z m1798 -35 c15
-19 27 -39 27 -43 0 -8 -104 -93 -113 -93 -8 0 -47 70 -47 83 0 17 72 87 90
87 8 0 27 -16 43 -34z m-838 3 c6 -9 -58 -119 -70 -119 -2 0 -11 12 -19 28
-14 26 -13 29 22 65 37 38 56 45 67 26z m523 -19 c12 -16 22 -33 22 -37 0 -4
-16 -21 -36 -37 l-36 -28 -29 33 -29 34 37 33 c20 17 39 32 43 32 3 0 16 -13
28 -30z m-2398 -51 c0 -9 -9 -24 -19 -33 -19 -17 -20 -17 -35 13 -20 38 -20
50 1 73 16 18 17 17 35 -9 10 -16 18 -35 18 -44z m224 16 c16 -24 15 -26 -14
-57 l-30 -33 -20 23 -20 24 26 34 c31 41 37 41 58 9z m3802 -104 c-8 -53 -28
-135 -43 -182 -26 -76 -31 -84 -54 -85 -38 -1 -42 -5 -110 -109 -34 -52 -63
-95 -65 -95 -1 0 10 30 25 68 15 37 34 85 40 107 7 22 27 57 43 78 25 33 29
43 20 62 -9 19 -4 31 33 80 23 32 60 91 81 131 22 40 40 67 42 58 2 -8 -3 -59
-12 -113z m-2978 50 c-2 -8 -11 -19 -20 -24 -13 -9 -21 -6 -37 14 -25 30 -26
37 -4 62 17 18 18 18 40 -10 13 -15 22 -34 21 -42z m515 43 c18 -24 18 -26 1
-45 -22 -25 -28 -24 -49 7 -16 24 -16 27 1 45 22 24 25 24 47 -7z m-287 -19
l18 -35 -39 -40 -40 -41 -22 28 c-13 15 -23 32 -23 38 0 10 70 85 80 85 4 0
15 -16 26 -35z m2404 22 c0 -7 -73 -84 -162 -172 -124 -123 -150 -145 -112
-96 58 75 252 281 265 281 5 0 9 -6 9 -13z m-2875 -15 c0 -22 -107 -134 -117
-124 -12 12 -4 24 57 95 38 44 60 54 60 29z m-916 -61 c8 -14 6 -25 -10 -45
-11 -14 -25 -26 -30 -26 -15 0 -10 52 8 72 20 22 20 22 32 -1z m614 -17 c28
-34 28 -36 11 -55 -16 -18 -18 -18 -37 -2 -28 26 -39 51 -32 73 9 29 26 24 58
-16z m1745 3 l23 -32 -37 -34 -37 -34 -24 29 c-30 38 -29 53 5 81 36 29 43 29
70 -10z m282 -65 c0 -9 -55 -52 -67 -52 -5 0 -17 14 -27 31 l-18 31 33 34 32
34 24 -35 c13 -19 23 -38 23 -43z m850 69 c0 -4 -26 -37 -58 -71 -39 -43 -62
-61 -71 -56 -9 6 5 26 50 72 61 61 79 74 79 55z m-1394 -15 c7 -17 -64 -85
-88 -86 -29 0 -20 26 22 64 43 39 58 44 66 22z m984 -58 c0 -9 8 -22 18 -28
15 -9 12 -15 -28 -50 l-45 -40 -17 23 c-26 33 -41 75 -34 92 3 8 16 19 29 24
14 5 27 18 31 28 7 16 9 16 26 -7 11 -14 20 -33 20 -42z m-2040 -3 c0 -6 -26
-37 -59 -69 l-58 -58 -21 30 -21 29 56 62 56 62 23 -22 c13 -12 24 -27 24 -34z
m-1377 30 c-3 -9 -8 -14 -10 -11 -3 3 -2 9 2 15 9 16 15 13 8 -4z m543 -2 c17
-23 17 -33 1 -33 -22 0 -51 26 -43 38 10 17 27 15 42 -5z m1571 0 c32 -41 33
-50 10 -71 l-22 -21 -24 35 c-23 33 -23 35 -6 54 22 24 24 24 42 3z m-525 -65
c-9 -9 -17 -7 -32 7 -23 21 -25 36 -8 53 9 9 16 5 31 -19 15 -22 17 -33 9 -41z
m-1783 35 c0 -25 -1 -25 -8 -8 -5 11 -7 23 -4 28 8 14 13 7 12 -20z m2023 -11
c17 -28 17 -29 -15 -60 -40 -39 -52 -40 -73 -7 -17 25 -16 27 16 60 41 42 51
43 72 7z m-990 -108 c-15 -18 -30 -33 -34 -33 -4 -1 -19 15 -33 34 l-27 34 29
36 28 36 32 -38 31 -37 -26 -32z m1684 40 l19 -35 -45 -39 -45 -39 -17 22
c-23 29 -22 37 2 37 13 0 22 9 26 28 9 35 23 62 33 62 4 0 16 -16 27 -36z
m289 -11 l18 -27 -39 -33 c-21 -18 -43 -32 -47 -30 -5 1 -16 15 -25 30 -17 28
-17 29 16 58 40 36 55 36 77 2z m467 -18 l22 -45 -21 -21 c-26 -27 -36 -21
-57 36 -14 36 -15 49 -6 60 21 26 39 17 62 -30z m-1800 1 c18 -24 17 -25 -41
-75 -65 -56 -75 -60 -91 -32 -8 16 -2 29 41 75 28 31 56 56 63 56 6 0 19 -11
28 -24z m755 -12 c4 -13 -45 -46 -58 -38 -7 4 -2 15 12 30 22 24 40 27 46 8z
m-534 -56 c-8 -14 -21 -8 -37 17 -25 38 -8 53 19 19 13 -16 21 -32 18 -36z
m229 -61 l-30 -30 -32 34 -31 34 37 33 36 34 25 -37 25 -37 -30 -31z m1239 35
l18 -42 -63 -45 c-35 -25 -66 -45 -69 -45 -3 0 -12 20 -20 44 l-15 45 55 46
c31 25 61 44 66 42 6 -2 19 -22 28 -45z m-2462 0 c13 -20 17 -31 10 -24 -16
15 -65 16 -74 2 -4 -6 -11 -8 -17 -4 -9 6 38 64 51 64 3 0 17 -17 30 -38z
m453 14 c14 -19 15 -27 5 -40 -11 -16 -14 -15 -35 7 -14 15 -20 30 -16 40 9
23 26 21 46 -7z m1479 -58 c10 -18 6 -25 -32 -58 l-44 -38 -22 26 c-12 15 -22
31 -23 36 0 5 17 24 38 41 40 36 61 34 83 -7z m-1045 6 c17 -25 17 -26 -39
-82 l-57 -57 -27 28 -28 28 57 54 c31 30 61 55 67 55 6 0 18 -12 27 -26z m741
4 c29 -27 29 -45 1 -75 -30 -32 -42 -29 -67 13 l-22 37 22 23 c28 30 37 30 66
2z m1846 -120 c-87 -178 -133 -225 -193 -196 l-30 14 132 147 c73 80 134 144
137 142 2 -3 -19 -51 -46 -107z m-2378 65 c25 -28 32 -53 16 -53 -9 0 -61 64
-61 74 0 15 23 3 45 -21z m2136 -10 c-16 -31 -90 -97 -98 -89 -5 4 16 30 45
57 57 53 68 59 53 32z m-2671 -38 c0 -21 -22 -35 -37 -24 -16 14 -17 41 -1 57
10 10 15 9 25 -5 7 -9 13 -22 13 -28z m1730 -32 c0 -6 -12 -21 -27 -33 -100
-78 -214 -187 -270 -258 l-66 -83 -13 29 c-7 17 -20 35 -31 40 -17 10 -16 12
7 38 14 15 99 96 190 181 l165 154 22 -28 c13 -15 23 -33 23 -40z m158 -51
c-73 -75 -121 -143 -116 -164 1 -7 -21 -43 -51 -80 -51 -63 -55 -66 -88 -61
-29 5 -39 1 -67 -26 -32 -31 -46 -32 -46 -2 0 38 225 264 381 385 66 51 59 23
-13 -52z m-1444 25 l21 -36 -22 -23 c-18 -17 -25 -20 -35 -10 -17 17 -59 15
-86 -4 -12 -8 -22 -12 -22 -9 0 12 105 125 114 122 5 -2 18 -19 30 -40z m1020
34 c6 -9 -80 -81 -96 -81 -20 0 -5 31 29 59 38 32 58 38 67 22z m-2834 -52
c11 -21 19 -39 17 -39 -6 0 -57 78 -57 85 0 15 22 -10 40 -46z m2553 22 l17
-28 -50 -42 c-28 -23 -54 -39 -60 -36 -22 14 -9 60 27 97 20 21 40 38 43 38 3
0 13 -13 23 -29z m-329 -52 c18 -31 18 -31 -3 -53 l-22 -21 -19 25 c-24 31
-24 39 -3 62 22 24 26 23 47 -13z m-741 -13 c3 -8 -1 -17 -9 -20 -9 -4 -14 1
-14 14 0 23 15 27 23 6z m2427 9 c0 -3 -22 -33 -49 -65 -28 -33 -53 -65 -58
-73 -12 -19 -112 -101 -118 -96 -5 6 134 173 176 212 27 25 49 35 49 22z
m-496 -77 c-4 -13 -10 -37 -13 -55 -5 -28 -62 -96 -144 -172 l-26 -23 -16 38
-16 39 100 98 c103 99 128 115 115 75z m-776 3 c-1 -4 -35 -43 -74 -85 -54
-57 -73 -72 -78 -60 -10 26 -8 29 65 93 64 56 96 75 87 52z m-2454 -16 c-4 -8
1 -26 10 -40 13 -20 25 -25 60 -25 l44 0 -5 -39 c-4 -32 -2 -41 18 -55 13 -9
43 -16 66 -16 28 0 43 -4 43 -12 0 -7 11 -26 24 -43 26 -32 25 -32 205 -38 65
-2 75 -5 82 -24 11 -30 48 -53 87 -53 24 0 46 -10 75 -35 46 -39 82 -45 92
-15 3 11 10 20 14 20 4 0 29 -23 56 -51 34 -34 43 -49 30 -46 -11 3 -56 13
-100 22 -243 51 -476 140 -644 248 -56 36 -204 194 -195 209 3 4 14 8 24 8 13
0 17 -5 14 -15z m1915 -18 c-2 -2 -23 -18 -46 -36 -53 -40 -55 -34 -6 19 25
28 39 38 46 31 6 -6 9 -12 6 -14z m1455 -84 c-4 -21 -17 -49 -31 -62 -13 -13
-33 -40 -45 -60 l-23 -36 -8 45 -8 45 58 52 c32 29 59 53 61 53 2 0 0 -17 -4
-37z m571 -69 c-62 -54 -86 -61 -33 -10 26 25 53 46 60 46 7 -1 -5 -17 -27
-36z m-3072 -34 c-18 -31 -33 -39 -33 -18 0 14 30 48 42 48 5 0 1 -13 -9 -30z
m562 -110 c-18 -20 -35 -18 -35 4 0 16 43 37 49 24 1 -5 -5 -18 -14 -28z
m-930 -105 c66 -23 161 -58 211 -78 254 -102 605 -168 1029 -193 l130 -8 -115
-8 c-145 -11 -426 5 -585 32 -238 40 -465 114 -660 213 -92 47 -186 104 -150
92 11 -4 74 -26 140 -50z m620 35 c3 -5 1 -10 -4 -10 -6 0 -11 5 -11 10 0 6 2
10 4 10 3 0 8 -4 11 -10z m2475 -10 c-8 -5 -19 -10 -25 -10 -5 0 -3 5 5 10 8
5 20 10 25 10 6 0 3 -5 -5 -10z m-2284 -15 c-21 -16 -32 -13 -21 4 3 6 14 11
23 11 15 -1 15 -2 -2 -15z m244 -26 c0 -13 -41 -22 -52 -11 -6 6 -6 17 2 32
11 21 12 21 31 4 10 -9 19 -21 19 -25z m569 34 c-2 -24 -41 -72 -82 -101 -64
-46 -59 -23 10 49 52 54 74 70 72 52z m1228 -235 c-2 -18 -4 -6 -4 27 0 33 2
48 4 33 2 -15 2 -42 0 -60z m-403 56 c9 -23 8 -24 -13 -24 -22 0 -36 26 -18
34 20 8 25 7 31 -10z m-1414 -14 c328 -16 332 -16 343 -36 9 -16 0 -17 -154
-11 -151 6 -386 35 -469 57 -32 9 -30 9 15 5 28 -3 147 -9 265 -15z m835 9
c10 -15 6 -16 -50 -24 l-50 -6 40 20 c48 23 52 24 60 10z m-200 -23 c12 -12
12 -15 -1 -20 -9 -3 -32 -6 -52 -6 l-37 0 30 20 c36 24 42 24 60 6z m1132 -68
c-6 -72 -31 -195 -42 -206 -2 -3 -39 13 -52 22 -1 1 7 35 17 76 26 98 25 126
-1 140 -27 15 -9 37 34 43 18 2 36 5 41 5 5 1 6 -33 3 -80z m-286 10 c39 -43
50 -85 30 -117 -7 -11 -16 0 -36 40 -15 30 -36 66 -46 81 -23 32 -24 38 -3 38
9 0 34 -19 55 -42z m63 -174 c9 -8 16 -32 16 -52 0 -42 -10 -34 -33 26 -17 43
-10 54 17 26z m103 -390 c-30 -60 -64 -120 -76 -134 l-22 -25 7 24 c3 13 23
49 43 81 20 31 50 82 66 113 16 31 31 54 33 52 2 -1 -21 -52 -51 -111z"/>
</g>
</svg>
